<svg xmlns="http://www.w3.org/2000/svg" version="1.1" xmlns:xlink="http://www.w3.org/1999/xlink" xmlns:svgjs="http://svgjs.dev/svgjs" width="100%" height="100%" viewBox="0 0 1000 600"><rect width="1000" height="600" x="0" y="0" fill="#0c500c"/><g><rect width="333.3333333333333" height="333.3333333333333" rx="13.333333333333334" ry="13.333333333333334" y="380.81230122258756" fill="#1ec01e" transform="matrix(0.3485874774714563,0,0,0.3485874774714563,0,109.15569701721057)" x="358.59020996093744"/><path d="M515.6140363941147 622.4789616930714L454.5426096716465 622.4789616930714L454.5426096716465 472.47896623437737L515.6140363941147 472.47896623437737Q539.6021309059615 472.47896623437737 557.7271303572204 482.00277546985Q575.8223679046182 491.5563466091835 585.8818914095862 508.49086990600824Q595.971176818415 525.3956312989721 595.971176818415 547.4789639637243L595.971176818415 547.4789639637243Q595.971176818415 569.5622966284766 585.8818914095862 586.4670580214404Q575.8223679046182 603.4015813182652 557.7271303572204 612.9551524575986Q539.6021309059615 622.4789616930714 515.6140363941147 622.4789616930714L515.6140363941147 622.4789616930714ZM470.4057044294806 486.1992039142301L470.4057044294806 608.7587240132186L514.75094118215 608.7587240132186Q534.6914167689208 608.7587240132186 549.3640353723208 600.9313432978145Q564.0366539757208 593.1337244862714 572.1914156335943 579.2944391909753Q580.3164153876069 565.4849157995397 580.3164153876069 547.4789639637243L580.3164153876069 547.4789639637243Q580.3164153876069 529.2646788008828 572.1914156335943 515.5444411210301Q564.0366539757208 501.8242034411774 549.3640353723208 494.0265846296342Q534.6914167689208 486.1992039142301 514.75094118215 486.1992039142301L514.75094118215 486.1992039142301L470.4057044294806 486.1992039142301Z " fill="#295f2d" transform="matrix(0.3485874774714563,0,0,0.3485874774714563,0,109.15569701721057)"/><path d="M832.4900623356376 621.4748768572663L775.2568888535864 621.4748768572663L775.2568888535864 480.9021700592457L832.4900623356376 480.9021700592457Q854.9705388592893 480.9021700592457 871.9564075973833 489.82742128451684Q888.9143849253985 498.78056391986695 898.3416815320913 514.6507762548022Q907.7968695488628 530.4930971796584 907.7968695488628 551.188523458256L907.7968695488628 551.188523458256Q907.7968695488628 571.8839497368535 898.3416815320913 587.7262706617098Q888.9143849253985 603.5964829966451 871.9564075973833 612.5496256319952Q854.9705388592893 621.4748768572663 832.4900623356376 621.4748768572663L832.4900623356376 621.4748768572663ZM790.1230104256787 493.76011010565196L790.1230104256787 608.6169368108601L831.6812114433474 608.6169368108601Q850.3684561962588 608.6169368108601 864.1189213651923 601.2814959600903Q877.8693865341256 593.9739465193995 885.511632895764 581.0044408326773Q893.1259878473234 568.0628265560342 893.1259878473234 551.188523458256L893.1259878473234 551.188523458256Q893.1259878473234 534.118980489925 885.511632895764 521.2610404435186Q877.8693865341256 508.40310039711244 864.1189213651923 501.0955509564217Q850.3684561962588 493.76011010565196 831.6812114433474 493.76011010565196L831.6812114433474 493.76011010565196L790.1230104256787 493.76011010565196ZM982.9084368915353 622.4789676201092L982.9084368915353 622.4789676201092Q966.4246135348626 622.4789676201092 953.985044639641 615.5618979205242Q941.5175843343404 608.6169368108601 934.4889489944394 596.4841734265071Q927.4603136545384 584.3235186320751 927.4603136545384 568.6485461676928L927.4603136545384 568.6485461676928Q927.4603136545384 553.0014651133891 934.2100348936497 540.9523759592731Q940.9318647226819 528.9032868051571 952.6741483659293 521.9583256954929Q964.4164320091766 515.0412559959078 979.0873137107162 515.0412559959078L979.0873137107162 515.0412559959078Q993.9534352828084 515.0412559959078 1005.5004790555029 521.7630858249402Q1017.0475228281973 528.4849156539725 1023.657787016914 540.6455704484044Q1030.2959426157095 552.8062252428364 1030.2959426157095 568.6485461676928L1030.2959426157095 568.6485461676928Q1030.2959426157095 569.6526369305357 1030.1843769753937 570.7682933336946Q1030.1007027451565 571.8839497368535 1030.1007027451565 573.0832803702492L1030.1007027451565 573.0832803702492L938.3100721752585 573.0832803702492L938.3100721752585 562.4287617200819L1022.4584563835181 562.4287617200819L1016.8243915475657 566.6403646420067Q1016.8243915475657 555.204886509628 1011.9155033736665 546.2796352843568Q1007.0066151997673 537.3264926490067 998.5555179458388 532.3060388347917Q990.1323121019891 527.2855850205767 979.0873137107162 527.2855850205767L979.0873137107162 527.2855850205767Q968.2375551899959 527.2855850205767 959.5912180655143 532.3060388347917Q950.9727723511121 537.3264926490067 946.1475584074499 546.3633095145938Q941.3223444637877 555.4001263801808 941.3223444637877 567.0587357931912L941.3223444637877 567.0587357931912L941.3223444637877 569.2621571894301Q941.3223444637877 581.3112463435461 946.6496037888712 590.459628849449Q951.976863113955 599.580119945273 961.5157253609634 604.7121393998038Q971.054587607972 609.8162674442558 983.2989166326408 609.8162674442558L983.2989166326408 609.8162674442558Q992.9493445199653 609.8162674442558 1001.2609847234992 606.4135154146213Q1009.6005163371119 603.0107633849866 1015.6250609141698 595.9821280450856L1015.6250609141698 595.9821280450856L1023.657787016914 605.2141847812254Q1016.6291516770129 613.6373906250751 1006.0861986671614 618.0721248276316Q995.5432456573099 622.4789676201092 982.9084368915353 622.4789676201092ZM1101.39114690701 622.4789676201092L1101.39114690701 622.4789676201092Q1086.3297854643647 622.4789676201092 1074.3643705404857 615.6455721507612Q1062.4268470266857 608.8121766814129 1055.5934515573372 596.6794132970599Q1048.7600560879891 584.5187585026279 1048.7600560879891 568.6485461676928L1048.7600560879891 568.6485461676928Q1048.7600560879891 552.5830939622045 1055.5934515573372 540.5340048080885Q1062.4268470266857 528.4849156539725 1074.3643705404857 521.7630858249402Q1086.3297854643647 515.0412559959078 1101.39114690701 515.0412559959078L1101.39114690701 515.0412559959078Q1115.22528630618 515.0412559959078 1126.1866104672163 521.2610404435186Q1137.1200432181731 527.4808248911295 1143.6466331766528 539.4462398150085Q1150.1732231351325 551.3837633288088 1150.1732231351325 568.6485461676928L1150.1732231351325 568.6485461676928Q1150.1732231351325 585.7180891360238 1143.7581988169686 597.7671782901398Q1137.3152830887261 609.8162674442558 1126.3818503377693 616.1476175321825Q1115.448417586812 622.4789676201092 1101.39114690701 622.4789676201092ZM1102.395237669853 609.8162674442558L1102.395237669853 609.8162674442558Q1113.6354759316787 609.8162674442558 1122.5607271569497 604.7121393998038Q1131.5138697922998 599.580119945273 1136.6179978367518 590.2364975688172Q1141.7500172912828 580.9207666024406 1141.7500172912828 568.6485461676928L1141.7500172912828 568.6485461676928Q1141.7500172912828 556.208977272471 1136.6179978367518 546.9769205363311Q1131.5138697922998 537.7448638001913 1122.5607271569497 532.6128443456604Q1113.6354759316787 527.4808248911295 1102.395237669853 527.4808248911295L1102.395237669853 527.4808248911295Q1091.35023927858 527.4808248911295 1082.5086622835456 532.6128443456604Q1073.6670852885113 537.7448638001913 1068.4513916037436 546.9769205363311Q1063.2356979189758 556.208977272471 1063.2356979189758 568.6485461676928L1063.2356979189758 568.6485461676928Q1063.2356979189758 580.9207666024406 1068.4513916037436 590.2364975688172Q1073.6670852885113 599.580119945273 1082.5086622835456 604.7121393998038Q1091.35023927858 609.8162674442558 1102.395237669853 609.8162674442558ZM1155.8072879710849 621.4748768572663L1142.1404970323883 621.4748768572663L1142.1404970323883 589.7344521873958L1143.562958946416 568.45330629714L1141.5547774207298 547.1721604068839L1141.5547774207298 472.4789642153961L1155.8072879710849 472.4789642153961L1155.8072879710849 621.4748768572663ZM1240.3461519204498 622.4789676201092L1240.3461519204498 622.4789676201092Q1223.8902199738563 622.4789676201092 1211.4227596685555 615.5618979205242Q1198.9831907733342 608.6169368108601 1191.9545554334331 596.4841734265071Q1184.925920093532 584.3235186320751 1184.925920093532 568.6485461676928L1184.925920093532 568.6485461676928Q1184.925920093532 553.0014651133891 1191.6477499225643 540.9523759592731Q1198.3695797515966 528.9032868051571 1210.111863394844 521.9583256954929Q1221.88203844817 515.0412559959078 1236.5250287396307 515.0412559959078L1236.5250287396307 515.0412559959078Q1251.3911503117229 515.0412559959078 1262.9381940844178 521.7630858249402Q1274.4852378571122 528.4849156539725 1281.1233934559073 540.6455704484044Q1287.7336576446237 552.8062252428364 1287.7336576446237 568.6485461676928L1287.7336576446237 568.6485461676928Q1287.7336576446237 569.6526369305357 1287.649983414387 570.7682933336946Q1287.5384177740711 571.8839497368535 1287.5384177740711 573.0832803702492L1287.5384177740711 573.0832803702492L1195.7756786142522 573.0832803702492L1195.7756786142522 562.4287617200819L1279.8961714124325 562.4287617200819L1274.2899979865592 566.6403646420067Q1274.2899979865592 555.204886509628 1269.3532184025812 546.2796352843568Q1264.4443302286818 537.3264926490067 1256.0211243848325 532.3060388347917Q1247.5700271309038 527.2855850205767 1236.5250287396307 527.2855850205767L1236.5250287396307 527.2855850205767Q1225.6752702189106 527.2855850205767 1217.0568245045083 532.3060388347917Q1208.4104873800266 537.3264926490067 1203.5852734363643 546.3633095145938Q1198.7879509027812 555.4001263801808 1198.7879509027812 567.0587357931912L1198.7879509027812 567.0587357931912L1198.7879509027812 569.2621571894301Q1198.7879509027812 581.3112463435461 1204.0873188177861 590.459628849449Q1209.4145781428697 599.580119945273 1218.9534403898783 604.7121393998038Q1228.492302636887 609.8162674442558 1240.7366316615557 609.8162674442558L1240.7366316615557 609.8162674442558Q1250.3870595488802 609.8162674442558 1258.7265911624927 606.4135154146213Q1267.0661227761052 603.0107633849866 1273.0906673531636 595.9821280450856L1273.0906673531636 595.9821280450856L1281.1233934559073 605.2141847812254Q1274.0947581160062 613.6373906250751 1263.551805106155 618.0721248276316Q1253.0088520963031 622.4789676201092 1240.3461519204498 622.4789676201092ZM1357.2111601513438 567.2539756637441L1328.0925280288966 594.1691863899523L1328.5108991800812 575.9003127882254L1394.1672785059823 516.0453467587508L1411.6551926254979 516.0453467587508L1365.243886254088 560.4205801943958L1357.2111601513438 567.2539756637441ZM1331.104800317426 621.4748768572663L1316.852289767071 621.4748768572663L1316.852289767071 472.4789642153961L1331.104800317426 472.4789642153961L1331.104800317426 621.4748768572663ZM1416.0620354179755 621.4748768572663L1398.602012708539 621.4748768572663L1354.6172590139995 566.6403646420067L1363.8493157501393 555.5953662507336L1416.0620354179755 621.4748768572663ZM1482.3320257656142 622.4789676201092L1482.3320257656142 622.4789676201092Q1465.8760938190203 622.4789676201092 1453.4086335137195 615.5618979205242Q1440.9690646184981 608.6169368108601 1433.940429278597 596.4841734265071Q1426.911793938696 584.3235186320751 1426.911793938696 568.6485461676928L1426.911793938696 568.6485461676928Q1426.911793938696 553.0014651133891 1433.6336237677283 540.9523759592731Q1440.3554535967605 528.9032868051571 1452.097737240008 521.9583256954929Q1463.867912293334 515.0412559959078 1478.5109025847946 515.0412559959078L1478.5109025847946 515.0412559959078Q1493.3770241568868 515.0412559959078 1504.9240679295813 521.7630858249402Q1516.4711117022762 528.4849156539725 1523.1092673010712 540.6455704484044Q1529.7195314897876 552.8062252428364 1529.7195314897876 568.6485461676928L1529.7195314897876 568.6485461676928Q1529.7195314897876 569.6526369305357 1529.635857259551 570.7682933336946Q1529.524291619235 571.8839497368535 1529.524291619235 573.0832803702492L1529.524291619235 573.0832803702492L1437.7615524594162 573.0832803702492L1437.7615524594162 562.4287617200819L1521.8820452575965 562.4287617200819L1516.2758718317232 566.6403646420067Q1516.2758718317232 555.204886509628 1511.3390922477452 546.2796352843568Q1506.4302040738462 537.3264926490067 1498.0069982299965 532.3060388347917Q1489.5559009760677 527.2855850205767 1478.5109025847946 527.2855850205767L1478.5109025847946 527.2855850205767Q1467.6611440640745 527.2855850205767 1459.0426983496723 532.3060388347917Q1450.3963612251905 537.3264926490067 1445.5711472815283 546.3633095145938Q1440.7738247479451 555.4001263801808 1440.7738247479451 567.0587357931912L1440.7738247479451 567.0587357931912L1440.7738247479451 569.2621571894301Q1440.7738247479451 581.3112463435461 1446.0731926629496 590.459628849449Q1451.4004519880336 599.580119945273 1460.9393142350423 604.7121393998038Q1470.478176482051 609.8162674442558 1482.7225055067197 609.8162674442558L1482.7225055067197 609.8162674442558Q1492.3729333940437 609.8162674442558 1500.7124650076566 606.4135154146213Q1509.0519966212696 603.0107633849866 1515.0765411983275 595.9821280450856L1515.0765411983275 595.9821280450856L1523.1092673010712 605.2141847812254Q1516.0806319611702 613.6373906250751 1505.5376789513189 618.0721248276316Q1494.994725941467 622.4789676201092 1482.3320257656142 622.4789676201092ZM1656.6533387591908 621.4748768572663L1641.7872171870986 621.4748768572663L1641.7872171870986 493.76011010565196L1592.3915299372388 493.76011010565196L1592.3915299372388 480.9021700592457L1706.049026009051 480.9021700592457L1706.049026009051 493.76011010565196L1656.6533387591908 493.76011010565196L1656.6533387591908 621.4748768572663ZM1740.9969628380031 621.4748768572663L1726.7165608775695 621.4748768572663L1726.7165608775695 516.0453467587508L1740.9969628380031 516.0453467587508L1740.9969628380031 621.4748768572663ZM1733.968327498102 492.75601934280894L1733.968327498102 492.75601934280894Q1729.5335932955459 492.75601934280894 1726.5213210070165 489.74374705427994Q1723.5090487184875 486.73147476575093 1723.5090487184875 482.5198718438261L1723.5090487184875 482.5198718438261Q1723.5090487184875 478.2803775118223 1726.5213210070165 475.3796708636092Q1729.5335932955459 472.4789642153961 1733.968327498102 472.4789642153961L1733.968327498102 472.4789642153961Q1738.3751702905797 472.4789642153961 1741.3874425791091 475.26810522329333Q1744.399714867638 478.0851376412695 1744.399714867638 482.29674056319436L1744.399714867638 482.29674056319436Q1744.399714867638 486.73147476575093 1741.4990082194245 489.74374705427994Q1738.5704101611327 492.75601934280894 1733.968327498102 492.75601934280894ZM1912.4733520035252 515.0412559959078L1912.4733520035252 515.0412559959078Q1925.3312920499316 515.0412559959078 1934.8701542969402 519.9501441698069Q1944.4090165439484 524.886923753785 1949.7362758690324 534.9278313822151Q1955.0635351941155 544.9687390106451 1955.0635351941155 560.225340323843L1955.0635351941155 560.225340323843L1955.0635351941155 621.4748768572663L1940.811024643761 621.4748768572663L1940.811024643761 561.6199108277916Q1940.811024643761 544.9687390106451 1932.861972771254 536.4339675264796Q1924.940812308826 527.8991960423141 1910.4651704778394 527.8991960423141L1910.4651704778394 527.8991960423141Q1899.6433033671979 527.8991960423141 1891.694251494691 532.4176044751075Q1883.7730910322625 536.9360129079012 1879.4499224700216 545.4707843920667Q1875.1267539077812 554.0055558762322 1875.1267539077812 566.0546450303482L1875.1267539077812 566.0546450303482L1875.1267539077812 621.4748768572663L1860.8742433574262 621.4748768572663L1860.8742433574262 561.6199108277916Q1860.8742433574262 544.9687390106451 1852.841517254682 536.4339675264796Q1844.8087911519383 527.8991960423141 1830.3610407310307 527.8991960423141L1830.3610407310307 527.8991960423141Q1819.7065220808631 527.8991960423141 1811.673795978119 532.4176044751075Q1803.6410698753753 536.9360129079012 1799.3179013131344 545.4707843920667Q1794.9947327508935 554.0055558762322 1794.9947327508935 566.0546450303482L1794.9947327508935 566.0546450303482L1794.9947327508935 621.4748768572663L1780.742222200539 621.4748768572663L1780.742222200539 516.0453467587508L1794.4090131392354 516.0453467587508L1794.4090131392354 544.5503678594605L1792.2055917429961 539.5299140452455Q1797.0029142765798 528.0944359128669 1807.7689985670631 521.5678459543874Q1818.5071914474674 515.0412559959078 1833.150181738928 515.0412559959078L1833.150181738928 515.0412559959078Q1848.6299143327574 515.0412559959078 1859.4796728534775 522.7671765877832Q1870.301539964119 530.4930971796584 1873.53694353328 545.9728297734881L1873.53694353328 545.9728297734881L1867.9028786973272 543.7694083772493Q1872.5328527704369 530.911468330843 1884.2751364136839 522.962416458336Q1896.0174200569313 515.0412559959078 1912.4733520035252 515.0412559959078ZM2008.0851057542422 621.4748768572663L1993.8047037938086 621.4748768572663L1993.8047037938086 516.0453467587508L2008.0851057542422 516.0453467587508L2008.0851057542422 621.4748768572663ZM2001.0564704143412 492.75601934280894L2001.0564704143412 492.75601934280894Q1996.6217362117845 492.75601934280894 1993.6094639232556 489.74374705427994Q1990.5971916347266 486.73147476575093 1990.5971916347266 482.5198718438261L1990.5971916347266 482.5198718438261Q1990.5971916347266 478.2803775118223 1993.6094639232556 475.3796708636092Q1996.6217362117845 472.4789642153961 2001.0564704143412 472.4789642153961L2001.0564704143412 472.4789642153961Q2005.4633132068188 472.4789642153961 2008.4755854953478 475.26810522329333Q2011.4878577838767 478.0851376412695 2011.4878577838767 482.29674056319436L2011.4878577838767 482.29674056319436Q2011.4878577838767 486.73147476575093 2008.5871511356636 489.74374705427994Q2005.6585530773718 492.75601934280894 2001.0564704143412 492.75601934280894ZM2062.0828756671326 621.4748768572663L2047.830365116778 621.4748768572663L2047.830365116778 472.4789642153961L2062.0828756671326 472.4789642153961L2062.0828756671326 621.4748768572663ZM2146.6496310265766 622.4789676201092L2146.6496310265766 622.4789676201092Q2130.165807669904 622.4789676201092 2117.7262387746823 615.5618979205242Q2105.2587784693815 608.6169368108601 2098.230143129481 596.4841734265071Q2091.2015077895794 584.3235186320751 2091.2015077895794 568.6485461676928L2091.2015077895794 568.6485461676928Q2091.2015077895794 553.0014651133891 2097.951229028691 540.9523759592731Q2104.6730588577234 528.9032868051571 2116.415342500971 521.9583256954929Q2128.157626144218 515.0412559959078 2142.8285078457575 515.0412559959078L2142.8285078457575 515.0412559959078Q2157.6946294178497 515.0412559959078 2169.241673190544 521.7630858249402Q2180.788716963239 528.4849156539725 2187.398981151955 540.6455704484044Q2194.0371367507505 552.8062252428364 2194.0371367507505 568.6485461676928L2194.0371367507505 568.6485461676928Q2194.0371367507505 569.6526369305357 2193.9255711104347 570.7682933336946Q2193.841896880198 571.8839497368535 2193.841896880198 573.0832803702492L2193.841896880198 573.0832803702492L2102.0512663103 573.0832803702492L2102.0512663103 562.4287617200819L2186.1996505185593 562.4287617200819L2180.565585682607 566.6403646420067Q2180.565585682607 555.204886509628 2175.656697508708 546.2796352843568Q2170.7478093348086 537.3264926490067 2162.2967120808803 532.3060388347917Q2153.8735062370306 527.2855850205767 2142.8285078457575 527.2855850205767L2142.8285078457575 527.2855850205767Q2131.978749325037 527.2855850205767 2123.332412200556 532.3060388347917Q2114.7139664861534 537.3264926490067 2109.888752542491 546.3633095145938Q2105.063538598829 555.4001263801808 2105.063538598829 567.0587357931912L2105.063538598829 567.0587357931912L2105.063538598829 569.2621571894301Q2105.063538598829 581.3112463435461 2110.3907979239125 590.459628849449Q2115.7180572489965 599.580119945273 2125.256919496005 604.7121393998038Q2134.7957817430133 609.8162674442558 2147.040110767682 609.8162674442558L2147.040110767682 609.8162674442558Q2156.6905386550065 609.8162674442558 2165.0021788585404 606.4135154146213Q2173.3417104721534 603.0107633849866 2179.3662550492113 595.9821280450856L2179.3662550492113 595.9821280450856L2187.398981151955 605.2141847812254Q2180.370345812054 613.6373906250751 2169.8273928022027 618.0721248276316Q2159.284439792351 622.4789676201092 2146.6496310265766 622.4789676201092ZM2276.9582989155356 515.0412559959078L2276.9582989155356 515.0412559959078Q2289.8162389619415 515.0412559959078 2299.550341079503 519.9501441698069Q2309.3123346071434 524.886923753785 2314.83483380278 534.9278313822151Q2320.357332998416 544.9687390106451 2320.357332998416 560.225340323843L2320.357332998416 560.225340323843L2320.357332998416 621.4748768572663L2306.0769310379824 621.4748768572663L2306.0769310379824 561.6199108277916Q2306.0769310379824 544.9687390106451 2297.765290834449 536.4339675264796Q2289.425759220836 527.8991960423141 2274.3643977781912 527.8991960423141L2274.3643977781912 527.8991960423141Q2263.124159516365 527.8991960423141 2254.784627902752 532.4176044751075Q2246.4450962891397 536.9360129079012 2241.926687856346 545.4707843920667Q2237.408279423553 554.0055558762322 2237.408279423553 566.0546450303482L2237.408279423553 566.0546450303482L2237.408279423553 621.4748768572663L2223.1557688731978 621.4748768572663L2223.1557688731978 472.4789642153961L2237.408279423553 472.4789642153961L2237.408279423553 544.9687390106451L2234.591247005576 539.5299140452455Q2239.6117008197916 528.0944359128669 2250.6566992110647 521.5678459543874Q2261.7016976023374 515.0412559959078 2276.9582989155356 515.0412559959078ZM2373.1557722779107 621.4748768572663L2358.903261727556 621.4748768572663L2358.903261727556 516.0453467587508L2373.1557722779107 516.0453467587508L2373.1557722779107 621.4748768572663ZM2366.12713693801 492.75601934280894L2366.12713693801 492.75601934280894Q2361.720294145532 492.75601934280894 2358.708021857003 489.74374705427994Q2355.695749568474 486.73147476575093 2355.695749568474 482.5198718438261L2355.695749568474 482.5198718438261Q2355.695749568474 478.2803775118223 2358.708021857003 475.3796708636092Q2361.720294145532 472.4789642153961 2366.12713693801 472.4789642153961L2366.12713693801 472.4789642153961Q2370.5618711405664 472.4789642153961 2373.5741434290953 475.26810522329333Q2376.5864157176247 478.0851376412695 2376.5864157176247 482.29674056319436L2376.5864157176247 482.29674056319436Q2376.5864157176247 486.73147476575093 2373.657817659332 489.74374705427994Q2370.7571110111194 492.75601934280894 2366.12713693801 492.75601934280894ZM2466.731453092863 515.0412559959078L2466.731453092863 515.0412559959078Q2479.5893931392693 515.0412559959078 2489.3234952568305 519.9501441698069Q2499.085488784471 524.886923753785 2504.6079879801077 534.9278313822151Q2510.130487175744 544.9687390106451 2510.130487175744 560.225340323843L2510.130487175744 560.225340323843L2510.130487175744 621.4748768572663L2495.85008521531 621.4748768572663L2495.85008521531 561.6199108277916Q2495.85008521531 544.9687390106451 2487.5384450117763 536.4339675264796Q2479.1989133981638 527.8991960423141 2464.1375519555186 527.8991960423141L2464.1375519555186 527.8991960423141Q2452.897313693693 527.8991960423141 2444.55778208008 532.4176044751075Q2436.2182504664675 536.9360129079012 2431.699842033674 545.4707843920667Q2427.18143360088 554.0055558762322 2427.18143360088 566.0546450303482L2427.18143360088 566.0546450303482L2427.18143360088 621.4748768572663L2412.9289230505256 621.4748768572663L2412.9289230505256 516.0453467587508L2426.567822579143 516.0453467587508L2426.567822579143 544.9687390106451L2424.364401182904 539.5299140452455Q2429.384854997119 528.0944359128669 2440.429853388392 521.5678459543874Q2451.474851779665 515.0412559959078 2466.731453092863 515.0412559959078Z " fill="#ffe67c" transform="matrix(0.3485874774714563,0,0,0.3485874774714563,0,109.15569701721057)"/></g></svg>